<?xml version="1.0" encoding="UTF-8" standalone="no"?>
<svg
   version="1.2"
   viewBox="0 0 66 65"
   width="66"
   height="65"
   id="svg9"
   sodipodi:docname="Shape 189.svg"
   inkscape:version="1.1 (ce6663b3b7, 2021-05-25)"
   xmlns:inkscape="http://www.inkscape.org/namespaces/inkscape"
   xmlns:sodipodi="http://sodipodi.sourceforge.net/DTD/sodipodi-0.dtd"
   xmlns="http://www.w3.org/2000/svg"
   xmlns:svg="http://www.w3.org/2000/svg">
  <defs
     id="defs13" />
  <sodipodi:namedview
     id="namedview11"
     pagecolor="#ffffff"
     bordercolor="#666666"
     borderopacity="1.0"
     inkscape:pageshadow="2"
     inkscape:pageopacity="0.0"
     inkscape:pagecheckerboard="0"
     showgrid="false"
     inkscape:zoom="13.430769"
     inkscape:cx="33.021192"
     inkscape:cy="32.537229"
     inkscape:window-width="1868"
     inkscape:window-height="1043"
     inkscape:window-x="2612"
     inkscape:window-y="0"
     inkscape:window-maximized="1"
     inkscape:current-layer="svg9" />
  <style
     id="style2">
		tspan { white-space:pre }
		.shp0 { fill: #000000;stroke: #1275b9;paint-order:stroke fill markers;stroke-width: 2 }
	</style>
  <g
     id="Responsive Design">
    <path
       id="Shape 189"
       class="shp0"
       d="M32.76 1C50.41 1 64.71 15.1 64.71 32.5C64.71 49.9 50.41 64 32.76 64C15.12 64 0.82 49.9 0.82 32.5C0.82 15.1 15.12 1 32.76 1Z" />
  </g>
  <g
     id="g7"
     transform="matrix(1.2909464,0,0,1.2497713,18.300865,13.93728)">
    <path
       id="Tablet"
       class="shp0"
       d="M 17.27,29.98 H 4.74 c -2.64,0 -4.78,-2.23 -4.78,-4.96 V 4.94 c 0,-2.73 2.14,-4.95 4.78,-4.95 h 12.53 c 2.63,0 4.77,2.22 4.77,4.95 v 20.08 c 0,2.73 -2.14,4.96 -4.77,4.96 z M 4.74,2 C 3.17,2 1.9,3.32 1.9,4.94 v 20.08 c 0,1.62 1.27,2.95 2.84,2.95 h 12.53 c 1.56,0 2.83,-1.33 2.83,-2.95 V 4.94 C 20.1,3.32 18.83,2 17.27,2 Z M 11,26.82 c -0.53,0 -0.97,-0.45 -0.97,-1.01 0,-0.55 0.44,-1 0.97,-1 0.53,0 0.97,0.45 0.97,1 0,0.56 -0.44,1.01 -0.97,1.01 z M 11.97,5.43 h -1.94 c -0.53,0 -0.96,-0.45 -0.96,-1 0,-0.56 0.43,-1.01 0.96,-1.01 h 1.94 c 0.53,0 0.97,0.45 0.97,1.01 0,0.55 -0.44,1 -0.97,1 z" />
  </g>
</svg>
